<svg width="134.000000" height="66.000000" viewBox="0 0 134 66" fill="none" xmlns="http://www.w3.org/2000/svg" xmlns:xlink="http://www.w3.org/1999/xlink">
	<desc>
			Created with Pixso.
	</desc>
	<defs/>
	<path d="M0 24.8906L0 0.28125L3.05859 0.28125L3.05859 21.8672L13.2188 21.8672L13.2188 24.8906L0 24.8906ZM15.1875 19.6875L15.1875 11.0039C15.1875 9.90234 15.6797 8.82422 16.6641 7.76953C17.8828 6.50391 19.4062 5.87109 21.2344 5.87109L21.2344 8.71875C19.8516 8.71875 18.8906 9.29297 18.3516 10.4414C18.1875 10.793 18.1055 11.1445 18.1055 11.4961L18.1055 19.2305C18.1055 20.0977 18.5039 20.8359 19.3008 21.4453C19.8633 21.8672 20.5078 22.0781 21.2344 22.0781L21.2344 24.9258C19.0078 24.9258 17.2852 24.0234 16.0664 22.2188C15.4805 21.3281 15.1875 20.4844 15.1875 19.6875ZM22.7461 24.9258L22.7461 22.0781C23.9883 22.0781 24.8789 21.5156 25.418 20.3906C25.6055 20.0156 25.6992 19.6523 25.6992 19.3008L25.6992 11.4961C25.6992 10.5352 25.2891 9.77344 24.4688 9.21094C23.9531 8.88281 23.3672 8.71875 22.7109 8.71875L22.7109 5.87109C24.8672 5.87109 26.5312 6.75 27.7031 8.50781C28.2891 9.375 28.582 10.207 28.582 11.0039L28.582 19.6875C28.582 20.8359 28.0898 21.9492 27.1055 23.0273C25.957 24.2695 24.5039 24.9023 22.7461 24.9258ZM30.7266 10.3008L30.7266 7.41797L33.0469 7.41797L33.0469 5.37891C33.0469 4.06641 33.4805 2.87109 34.3477 1.79297C35.3086 0.667969 36.5508 0.09375 38.0742 0.0703125L39.375 0.0703125L38.707 2.91797L38.0391 2.91797C36.7031 2.98828 36.0234 3.80859 36 5.37891L36 7.45312L38.3906 7.41797L38.3906 10.3008L36 10.3008L36 24.8906L33.0469 24.8906L33.0469 10.3008L30.7266 10.3008ZM40.3594 8.92969L40.3594 6.08203L42.6797 6.08203L42.6797 0L45.668 0L45.668 6.08203L47.918 6.08203L47.918 8.96484L45.668 8.96484L45.668 19.0547C45.668 20.7188 46.3477 21.6445 47.707 21.832C47.9648 21.8789 48.2227 21.9023 48.4805 21.9023L48.9727 21.9023L49.6406 24.8906L48.375 24.8906C45.4922 24.8672 43.7227 23.7891 43.0664 21.6562C42.832 20.8594 42.7148 19.875 42.7148 18.7031L42.6797 8.92969L40.3594 8.92969ZM51.2227 24.8906L51.2227 0.28125L54.2812 0.28125L54.2812 11.0039L57.4453 11.0039L57.4453 13.9922L54.2812 13.9922L54.2812 24.8906L51.2227 24.8906ZM59.2031 13.9922L59.2031 11.0039L62.332 11.0039L62.332 0.28125L65.4258 0.28125L65.4258 24.8906L62.332 24.8906L62.332 13.9922L59.2031 13.9922ZM68.168 19.6875L68.168 11.0039C68.168 9.90234 68.6602 8.82422 69.6445 7.76953C70.8633 6.50391 72.3867 5.87109 74.2148 5.87109L74.2148 8.71875C72.832 8.71875 71.8711 9.29297 71.332 10.4414C71.168 10.793 71.0859 11.1445 71.0859 11.4961L71.0859 19.2305C71.0859 20.0977 71.4844 20.8359 72.2812 21.4453C72.8438 21.8672 73.4883 22.0781 74.2148 22.0781L74.2148 24.9258C71.9883 24.9258 70.2656 24.0234 69.0469 22.2188C68.4609 21.3281 68.168 20.4844 68.168 19.6875ZM75.7266 24.9258L75.7266 22.0781C76.9688 22.0781 77.8594 21.5156 78.3984 20.3906C78.5859 20.0156 78.6797 19.6523 78.6797 19.3008L78.6797 11.4961C78.6797 10.5352 78.2695 9.77344 77.4492 9.21094C76.9336 8.88281 76.3477 8.71875 75.6914 8.71875L75.6914 5.87109C77.8477 5.87109 79.5117 6.75 80.6836 8.50781C81.2695 9.375 81.5625 10.207 81.5625 11.0039L81.5625 19.6875C81.5625 20.8359 81.0703 21.9492 80.0859 23.0273C78.9375 24.2695 77.4844 24.9023 75.7266 24.9258ZM84.2344 19.8281L84.2344 5.90625L87.2227 5.90625L87.2227 19.4766C87.2227 20.3203 87.6445 21.0234 88.4883 21.5859C89.0508 21.9375 89.6719 22.1133 90.3516 22.1133L90.3516 25.0664C88.1016 25.0664 86.3672 24.1875 85.1484 22.4297C84.5391 21.5391 84.2344 20.6719 84.2344 19.8281ZM91.8984 25.0664L91.8984 22.1133C93.1641 22.1133 94.0898 21.6094 94.6758 20.6016C94.8867 20.2266 94.9922 19.8516 94.9922 19.4766L94.9922 5.90625L97.9805 5.90625L97.9805 19.8281C97.9805 20.9297 97.4766 22.0195 96.4688 23.0977C95.25 24.3867 93.7266 25.043 91.8984 25.0664ZM100.02 19.8984L102.797 19.3711C102.797 20.4258 103.348 21.2578 104.449 21.8672C104.988 22.125 105.504 22.2656 105.996 22.2891L105.996 25.0664C103.723 25.0664 102.023 24.2461 100.898 22.6055C100.312 21.7383 100.02 20.8359 100.02 19.8984ZM100.195 11.25C100.195 9.11719 101.168 7.53516 103.113 6.50391C104.051 6.01172 104.988 5.76562 105.926 5.76562L105.926 8.50781C104.848 8.50781 104.016 8.95312 103.43 9.84375C103.125 10.2891 102.973 10.7578 102.973 11.25C102.973 12 103.559 12.6094 104.73 13.0781C105.621 13.4531 107.344 13.9453 109.898 14.5547C111.492 14.8828 112.629 15.668 113.309 16.9102C113.66 17.5664 113.836 18.3047 113.836 19.125C113.836 21.375 112.934 23.0391 111.129 24.1172C110.074 24.75 108.867 25.0664 107.508 25.0664L107.508 22.2891C108.586 22.2891 109.488 21.9141 110.215 21.1641C110.73 20.625 110.988 19.9922 110.988 19.2656C110.988 18.3281 110.062 17.5781 108.211 17.0156C107.742 16.875 106.992 16.6758 105.961 16.418C104.859 16.1602 104.062 15.9492 103.57 15.7852C101.789 15.082 100.711 14.0156 100.336 12.5859C100.242 12.1641 100.195 11.7188 100.195 11.25ZM107.473 8.54297L107.473 5.76562C109.488 5.76562 111.117 6.51562 112.359 8.01562C113.133 8.97656 113.52 9.98438 113.52 11.0391L110.742 11.4961C110.742 10.207 110.039 9.30469 108.633 8.78906C108.211 8.625 107.824 8.54297 107.473 8.54297ZM115.91 19.6875L115.91 10.9688C115.934 9.89062 116.449 8.82422 117.457 7.76953C118.676 6.52734 120.152 5.89453 121.887 5.87109L121.887 8.64844C120.762 8.64844 119.883 9.14062 119.25 10.125C118.992 10.5469 118.863 10.9336 118.863 11.2852L118.863 13.6758L126.738 13.6758L126.738 11.2852C126.738 10.2305 126.199 9.45703 125.121 8.96484C124.629 8.73047 124.125 8.61328 123.609 8.61328L123.609 5.87109C125.227 5.87109 126.668 6.44531 127.934 7.59375C128.988 8.60156 129.527 9.71484 129.551 10.9336L129.551 16.5234L118.863 16.5234L118.863 19.6875C118.863 20.3438 119.238 20.9531 119.988 21.5156C120.598 21.9375 121.242 22.1484 121.922 22.1484L121.922 24.8906C119.789 24.8906 118.113 24.0234 116.895 22.2891C116.238 21.375 115.91 20.5078 115.91 19.6875ZM123.609 24.8906L123.609 22.1133C125.016 22.1133 126.07 21.5039 126.773 20.2852C126.914 20.0273 127.02 19.7812 127.09 19.5469L129.586 20.4609C129.164 22.0781 128.203 23.2969 126.703 24.1172C125.742 24.6328 124.711 24.8906 123.609 24.8906Z" fill-rule="evenodd" fill="#FFFFFF"/>
	<path d="M2.85599 58.576L0.311989 54.472L1.27199 54.472L3.57599 58.252L5.17199 58.252L5.17199 54.472L6.09599 54.472L6.09599 58.252L7.69199 58.252L9.98399 54.472L10.956 54.472L8.39999 58.576L11.268 62.992L10.296 62.992L7.81199 58.996L6.09599 58.996L6.09599 62.992L5.17199 62.992L5.17199 58.996L3.45599 58.996L0.971989 62.992L-1.07437e-05 62.992L2.85599 58.576ZM14.6677 61.732L19.9477 54.472L20.6437 54.472L20.6437 62.992L19.8037 62.992L19.8037 55.852L14.6077 62.992L13.8397 62.992L13.8397 54.472L14.6677 54.472L14.6677 61.732ZM26.1763 56.728C26.0803 57.856 25.9563 58.82 25.8043 59.62C25.6603 60.42 25.4763 61.076 25.2523 61.588C25.0363 62.092 24.7723 62.464 24.4603 62.704C24.1563 62.936 23.7963 63.052 23.3803 63.052L23.2363 62.248C23.3963 62.24 23.5483 62.208 23.6923 62.152C23.8443 62.096 23.9883 61.996 24.1243 61.852C24.2603 61.7 24.3883 61.496 24.5083 61.24C24.6283 60.976 24.7403 60.64 24.8443 60.232C24.9483 59.816 25.0403 59.316 25.1203 58.732C25.2083 58.148 25.2843 57.456 25.3483 56.656L25.5283 54.472L29.8603 54.472L29.8603 62.992L29.0323 62.992L29.0323 55.216L26.2963 55.216L26.1763 56.728ZM36.921 63.052C36.329 63.052 35.785 62.932 35.289 62.692C34.801 62.444 34.381 62.12 34.029 61.72C33.677 61.312 33.405 60.848 33.213 60.328C33.021 59.808 32.925 59.276 32.925 58.732C32.925 58.164 33.025 57.62 33.225 57.1C33.433 56.58 33.717 56.12 34.077 55.72C34.437 55.32 34.861 55.004 35.349 54.772C35.837 54.532 36.365 54.412 36.933 54.412C37.525 54.412 38.065 54.54 38.553 54.796C39.049 55.044 39.469 55.372 39.813 55.78C40.165 56.188 40.437 56.652 40.629 57.172C40.821 57.684 40.917 58.208 40.917 58.744C40.917 59.312 40.813 59.856 40.605 60.376C40.405 60.896 40.125 61.356 39.765 61.756C39.413 62.148 38.993 62.464 38.505 62.704C38.017 62.936 37.489 63.052 36.921 63.052ZM33.765 58.732C33.765 59.196 33.841 59.644 33.993 60.076C34.145 60.5 34.361 60.88 34.641 61.216C34.921 61.544 35.253 61.808 35.637 62.008C36.021 62.2 36.449 62.296 36.921 62.296C37.401 62.296 37.837 62.192 38.229 61.984C38.621 61.776 38.953 61.504 39.225 61.168C39.497 60.832 39.705 60.452 39.849 60.028C40.001 59.604 40.077 59.172 40.077 58.732C40.077 58.268 39.997 57.824 39.837 57.4C39.685 56.968 39.469 56.588 39.189 56.26C38.909 55.932 38.577 55.672 38.193 55.48C37.809 55.28 37.385 55.18 36.921 55.18C36.441 55.18 36.005 55.284 35.613 55.492C35.221 55.692 34.889 55.96 34.617 56.296C34.345 56.632 34.133 57.012 33.981 57.436C33.837 57.86 33.765 58.292 33.765 58.732ZM49.2207 52C49.2047 52.384 49.0407 52.692 48.7287 52.924C48.4247 53.148 48.0007 53.26 47.4567 53.26C46.9127 53.26 46.4847 53.148 46.1727 52.924C45.8687 52.692 45.7087 52.384 45.6927 52L46.2087 52C46.2087 52.104 46.2407 52.204 46.3047 52.3C46.3687 52.396 46.4567 52.48 46.5687 52.552C46.6807 52.624 46.8127 52.684 46.9647 52.732C47.1167 52.772 47.2847 52.792 47.4687 52.792C47.8127 52.792 48.0967 52.72 48.3207 52.576C48.5527 52.424 48.6847 52.232 48.7167 52L49.2207 52ZM44.7807 61.732L50.0607 54.472L50.7567 54.472L50.7567 62.992L49.9167 62.992L49.9167 55.852L44.7207 62.992L43.9527 62.992L43.9527 54.472L44.7807 54.472L44.7807 61.732ZM59.6959 58.252L60.9919 58.252L63.7759 54.472L64.7359 54.472L61.7479 58.576L65.0479 62.992L64.0879 62.992L61.0639 58.996L59.6959 58.996L59.6959 62.992L58.8679 62.992L58.8679 54.472L59.6959 54.472L59.6959 58.252ZM70.6185 63.052C70.0265 63.052 69.4825 62.932 68.9865 62.692C68.4985 62.444 68.0785 62.12 67.7265 61.72C67.3745 61.312 67.1025 60.848 66.9105 60.328C66.7185 59.808 66.6225 59.276 66.6225 58.732C66.6225 58.164 66.7225 57.62 66.9225 57.1C67.1305 56.58 67.4145 56.12 67.7745 55.72C68.1345 55.32 68.5585 55.004 69.0465 54.772C69.5345 54.532 70.0625 54.412 70.6305 54.412C71.2225 54.412 71.7625 54.54 72.2505 54.796C72.7465 55.044 73.1665 55.372 73.5105 55.78C73.8625 56.188 74.1345 56.652 74.3265 57.172C74.5185 57.684 74.6145 58.208 74.6145 58.744C74.6145 59.312 74.5105 59.856 74.3025 60.376C74.1025 60.896 73.8225 61.356 73.4625 61.756C73.1105 62.148 72.6905 62.464 72.2025 62.704C71.7145 62.936 71.1865 63.052 70.6185 63.052ZM67.4625 58.732C67.4625 59.196 67.5385 59.644 67.6905 60.076C67.8425 60.5 68.0585 60.88 68.3385 61.216C68.6185 61.544 68.9505 61.808 69.3345 62.008C69.7185 62.2 70.1465 62.296 70.6185 62.296C71.0985 62.296 71.5345 62.192 71.9265 61.984C72.3185 61.776 72.6505 61.504 72.9225 61.168C73.1945 60.832 73.4025 60.452 73.5465 60.028C73.6985 59.604 73.7745 59.172 73.7745 58.732C73.7745 58.268 73.6945 57.824 73.5345 57.4C73.3825 56.968 73.1665 56.588 72.8865 56.26C72.6065 55.932 72.2745 55.672 71.8905 55.48C71.5065 55.28 71.0825 55.18 70.6185 55.18C70.1385 55.18 69.7025 55.284 69.3105 55.492C68.9185 55.692 68.5865 55.96 68.3145 56.296C68.0425 56.632 67.8305 57.012 67.6785 57.436C67.5345 57.86 67.4625 58.292 67.4625 58.732ZM85.1862 62.992L85.1862 55.996L82.0782 61.408L81.5862 61.408L78.4782 55.996L78.4782 62.992L77.6382 62.992L77.6382 54.472L78.5022 54.472L81.8262 60.304L85.1742 54.472L86.0262 54.472L86.0262 62.992L85.1862 62.992ZM89.6488 54.472L96.2248 54.472L96.2248 62.992L95.3848 62.992L95.3848 55.216L90.4768 55.216L90.4768 62.992L89.6488 62.992L89.6488 54.472ZM101.751 56.728C101.655 57.856 101.531 58.82 101.379 59.62C101.235 60.42 101.051 61.076 100.827 61.588C100.611 62.092 100.347 62.464 100.035 62.704C99.731 62.936 99.371 63.052 98.955 63.052L98.811 62.248C98.971 62.24 99.123 62.208 99.267 62.152C99.419 62.096 99.563 61.996 99.699 61.852C99.835 61.7 99.963 61.496 100.083 61.24C100.203 60.976 100.315 60.64 100.419 60.232C100.523 59.816 100.615 59.316 100.695 58.732C100.783 58.148 100.859 57.456 100.923 56.656L101.103 54.472L105.435 54.472L105.435 62.992L104.607 62.992L104.607 55.216L101.871 55.216L101.751 56.728ZM114.788 62.248L114.788 62.992L109.064 62.992L109.064 54.472L114.68 54.472L114.68 55.216L109.904 55.216L109.904 58.288L114.068 58.288L114.068 58.996L109.904 58.996L109.904 62.248L114.788 62.248ZM118.656 58.252L119.952 58.252L122.736 54.472L123.696 54.472L120.708 58.576L124.008 62.992L123.048 62.992L120.024 58.996L118.656 58.996L118.656 62.992L117.828 62.992L117.828 54.472L118.656 54.472L118.656 58.252ZM125.571 58.672C125.571 58.16 125.659 57.652 125.835 57.148C126.019 56.636 126.283 56.18 126.627 55.78C126.971 55.38 127.395 55.056 127.899 54.808C128.403 54.552 128.975 54.424 129.615 54.424C130.375 54.424 131.023 54.596 131.559 54.94C132.103 55.284 132.503 55.732 132.759 56.284L132.099 56.692C131.963 56.412 131.795 56.176 131.595 55.984C131.403 55.792 131.195 55.636 130.971 55.516C130.747 55.396 130.515 55.312 130.275 55.264C130.035 55.208 129.799 55.18 129.567 55.18C129.055 55.18 128.603 55.284 128.211 55.492C127.819 55.7 127.487 55.972 127.215 56.308C126.951 56.644 126.751 57.024 126.615 57.448C126.479 57.864 126.411 58.288 126.411 58.72C126.411 59.192 126.491 59.644 126.651 60.076C126.819 60.508 127.043 60.892 127.323 61.228C127.611 61.556 127.947 61.82 128.331 62.02C128.723 62.212 129.147 62.308 129.603 62.308C129.843 62.308 130.087 62.28 130.335 62.224C130.591 62.16 130.835 62.064 131.067 61.936C131.307 61.8 131.527 61.636 131.727 61.444C131.927 61.244 132.095 61.004 132.231 60.724L132.927 61.084C132.791 61.404 132.599 61.688 132.351 61.936C132.103 62.176 131.827 62.38 131.523 62.548C131.219 62.716 130.895 62.844 130.551 62.932C130.215 63.02 129.883 63.064 129.555 63.064C128.971 63.064 128.435 62.936 127.947 62.68C127.459 62.424 127.039 62.092 126.687 61.684C126.335 61.268 126.059 60.8 125.859 60.28C125.667 59.752 125.571 59.216 125.571 58.672Z" fill-rule="evenodd" fill="#FFFFFF"/>
</svg>
